<svg width="190" height="190" viewBox="0 0 190 190" fill="none" xmlns="http://www.w3.org/2000/svg">
<path d="M95.0129 62.1V0C88.8805 0 82.9034 0.595125 77.1074 1.70775L87.6644 62.9538C90.019 62.4105 92.4772 62.1 95.0129 62.1Z" fill="#F05F5A"/>
<path d="M95.0129 0V62.1C113.151 62.1 127.926 76.8487 127.926 95.0129C127.926 113.151 113.151 127.926 95.0129 127.926C76.8746 127.926 62.1 113.151 62.1 95.0129C62.1 92.4513 62.4105 89.9673 62.9797 87.5868L8.66812 55.4242C3.13087 67.482 0 80.8852 0 95.0129C0 147.41 42.6161 190.026 95.0129 190.026C147.41 190.026 190.026 147.41 190.026 95.0129C190.026 42.6161 147.384 0 95.0129 0Z" fill="#64873A"/>
<path d="M87.6385 62.9531L77.0815 1.70703C66.5763 3.72528 56.692 7.47715 47.7393 12.6263L76.7192 67.6624C79.9795 65.463 83.6796 63.8587 87.6385 62.9531Z" fill="#E0C023"/>
<path d="M76.7192 67.6626L47.7392 12.6523C30.6876 22.4848 16.948 37.4406 8.66797 55.4237L62.9796 87.5863C64.8943 79.3322 69.8882 72.2424 76.7192 67.6626Z" fill="#A9CD39"/>
</svg>