<svg width="39" height="37" viewBox="0 0 39 37" fill="none" xmlns="http://www.w3.org/2000/svg">
<path d="M34.4873 2.7793H8.96631C6.20489 2.7793 3.96631 5.01787 3.96631 7.77929V28.3003C3.96631 31.0617 6.20488 33.3003 8.9663 33.3003H34.4873" stroke="#444444" stroke-width="2" stroke-miterlimit="10" stroke-linecap="round" stroke-linejoin="round"/>
<path d="M33.6268 32.4405L24.7285 20.5762" stroke="#444444" stroke-width="2"/>
<path d="M1 3.96608C1 5.6042 2.32796 6.93216 3.96608 6.93216C5.6042 6.93216 6.93216 5.6042 6.93216 3.96608C6.93216 2.32796 5.6042 1 3.96608 1C2.32796 1 1 2.32796 1 3.96608Z" fill="#0073BD" stroke="#444444" stroke-width="2" stroke-miterlimit="10" stroke-linecap="round" stroke-linejoin="round"/>
<path d="M31.2544 3.96608C31.2544 5.6042 32.5824 6.93216 34.2205 6.93216C35.8586 6.93216 37.1866 5.6042 37.1866 3.96608C37.1866 2.32796 35.8586 1 34.2205 1C32.5824 1 31.2544 2.32796 31.2544 3.96608Z" fill="#0073BD" stroke="#444444" stroke-width="2" stroke-miterlimit="10" stroke-linecap="round" stroke-linejoin="round"/>
<path d="M1 33.0325C1 34.6706 2.32796 35.9986 3.96608 35.9986C5.6042 35.9986 6.93216 34.6706 6.93216 33.0325C6.93216 31.3944 5.6042 30.0664 3.96608 30.0664C2.32796 30.0664 1 31.3944 1 33.0325Z" fill="#0073BD" stroke="#444444" stroke-width="2" stroke-miterlimit="10" stroke-linecap="round" stroke-linejoin="round"/>
<path d="M31.2544 33.0325C31.2544 34.6706 32.5824 35.9986 34.2205 35.9986C35.8586 35.9986 37.1866 34.6706 37.1866 33.0325C37.1866 31.3944 35.8586 30.0664 34.2205 30.0664C32.5824 30.0664 31.2544 31.3944 31.2544 33.0325Z" fill="#0073BD" stroke="#444444" stroke-width="2" stroke-miterlimit="10" stroke-linecap="round" stroke-linejoin="round"/>
<path d="M20.3928 16.2963C20.1568 15.4011 21.1592 14.6935 21.9238 15.2156L26.7936 18.5416C27.5309 19.0452 27.2888 20.1891 26.4108 20.3509L25.9957 20.4273C25.1316 20.5865 24.3807 21.1166 23.9413 21.8775L23.7291 22.2449C23.2826 23.018 22.1237 22.863 21.8962 21.9997L20.3928 16.2963Z" fill="white" stroke="#444444" stroke-width="2"/>
</svg>