<svg width="37" height="37" viewBox="0 0 37 37" fill="none" xmlns="http://www.w3.org/2000/svg">
<path d="M6.65485 35.3457L30.3452 35.3457C33.1066 35.3457 35.3452 33.1071 35.3452 30.3457L35.3452 6.65534C35.3452 3.89392 33.1066 1.65534 30.3452 1.65534L6.65485 1.65534C3.89343 1.65534 1.65485 3.89391 1.65485 6.65534L1.65485 30.3457C1.65485 33.1071 3.89343 35.3457 6.65485 35.3457Z" fill="white" stroke="#444444" stroke-width="2" stroke-miterlimit="10" stroke-linecap="round" stroke-linejoin="round"/>
<path d="M6.89339 10.168L6.89339 8.89388C6.89339 7.78931 7.78882 6.89388 8.89339 6.89388L10.1675 6.89388" stroke="#444444" stroke-width="2" stroke-miterlimit="10" stroke-linecap="round" stroke-linejoin="round"/>
<path d="M10.1675 29.8112L8.89339 29.8112C7.78882 29.8112 6.89339 28.9158 6.89339 27.8112L6.89339 26.5371" stroke="#444444" stroke-width="2" stroke-miterlimit="10" stroke-linecap="round" stroke-linejoin="round"/>
<path d="M30.4665 26.5371L30.4665 27.8112C30.4665 28.9158 29.571 29.8112 28.4665 29.8112L27.1924 29.8112" stroke="#444444" stroke-width="2" stroke-miterlimit="10" stroke-linecap="round" stroke-linejoin="round"/>
<path d="M27.1924 6.89388L28.4665 6.89388C29.571 6.89388 30.4665 7.78931 30.4665 8.89388L30.4665 10.168" stroke="#444444" stroke-width="2" stroke-miterlimit="10" stroke-linecap="round" stroke-linejoin="round"/>
<path d="M25.152 16.0377C25.152 12.4828 22.2626 9.59961 18.6955 9.59961C15.1285 9.59961 12.2354 12.4828 12.2354 16.0377C12.2354 20.6835 18.6955 27.7598 18.6955 27.7598C18.6955 27.7598 25.152 20.6835 25.152 16.0377Z" fill="white" stroke="#444444" stroke-width="2" stroke-miterlimit="10" stroke-linecap="round" stroke-linejoin="round"/>
<path d="M16.0264 16.0351C16.0264 17.4956 17.2196 18.6795 18.6801 18.6795C20.1406 18.6795 21.3338 17.4956 21.3338 16.0351C21.3338 14.5746 20.1406 13.3906 18.6801 13.3906C17.2196 13.3906 16.0264 14.5746 16.0264 16.0351Z" fill="#0073BD"/>
</svg>