<svg width="20" height="30" viewBox="0 0 20 30" fill="none" xmlns="http://www.w3.org/2000/svg">
<path d="M13.1245 8.33141C11.2184 4.99395 9.69354 2.74609 9.69354 2.74609C9.69354 2.74609 1.40625 15.2466 1.40625 19.9825C1.40625 24.7184 5.11896 28.5621 9.69354 28.5621C14.2681 28.5621 17.9808 24.7184 17.9808 19.9825C17.9808 18.7985 17.7707 17.3275 17 15.5" stroke="white" stroke-width="2" stroke-miterlimit="10" stroke-linecap="round"/>
<path d="M18.5858 12.3138C18.5858 10.3147 15.0969 5.04688 15.0969 5.04688C15.0969 5.04688 11.6079 10.3147 11.6079 12.3138C11.6079 14.3128 13.1742 15.9258 15.0969 15.9258C17.0195 15.9258 18.5858 14.3128 18.5858 12.3138Z" stroke="white" stroke-width="2" stroke-miterlimit="10" stroke-linecap="round"/>
<path d="M9.19336 24.2852C10 24.5 10.696 24.2852 10.696 24.2852" stroke="white" stroke-width="2" stroke-miterlimit="10" stroke-linecap="round"/>
<path d="M5.50036 18C5.50036 18 3.98265 20.6131 6.00004 22.5C6.18838 22.6779 6.481 22.9313 6.86395 23.1832" stroke="white" stroke-width="2" stroke-miterlimit="10" stroke-linecap="round" stroke-linejoin="round"/>
</svg>