<svg width="35" height="35" viewBox="0 0 35 35" fill="none" xmlns="http://www.w3.org/2000/svg">
<path d="M33.4347 10.8558V28.4337C33.4347 31.1951 31.1961 33.4337 28.4347 33.4337H6.56543C3.80401 33.4337 1.56543 31.1951 1.56543 28.4337V6.56445C1.56543 3.80303 3.80401 1.56445 6.56543 1.56445H23.8646" stroke="#444444" stroke-width="2" stroke-miterlimit="10" stroke-linecap="round" stroke-linejoin="round"/>
<path d="M13.2454 20.9725C13.2454 18.6225 9.77539 19.1725 9.77539 17.9525C9.77539 17.5125 10.0854 17.3025 10.4954 17.3125C10.9554 17.3225 11.2754 17.5925 11.3054 18.0425H13.1554C13.0854 16.7025 12.0554 15.9425 10.5254 15.9425C9.05539 15.9425 7.96539 16.6825 7.96539 18.0125C7.94539 20.5025 11.4554 19.8025 11.4554 21.1025C11.4554 21.5125 11.1354 21.7625 10.6354 21.7625C10.1554 21.7625 9.81539 21.5025 9.76539 20.9625H7.94539C7.99539 22.3825 9.17539 23.1325 10.6854 23.1325C12.3254 23.1325 13.2454 22.1525 13.2454 20.9725ZM18.6677 23.0625H20.3777V16.0425H18.6677V18.7925H16.0077V16.0425H14.2977V23.0625H16.0077V20.1725H18.6677V23.0625ZM23.3222 19.1825V17.4225H24.2522C24.9322 17.4225 25.2222 17.7625 25.2222 18.3025C25.2222 18.8425 24.9322 19.1825 24.2522 19.1825H23.3222ZM26.9622 18.3025C26.9622 17.0125 26.1022 16.0425 24.3822 16.0425H21.6122V23.0625H23.3222V20.5425H24.3822C26.1722 20.5425 26.9622 19.4625 26.9622 18.3025Z" fill="#0073BD"/>
<path d="M23.8647 1.56445V7.85578C23.8647 9.51264 25.2079 10.8558 26.8647 10.8558H33.1561" stroke="#444444" stroke-width="2" stroke-miterlimit="10" stroke-linecap="round" stroke-linejoin="round"/>
</svg>