<svg width="30" height="28" viewBox="0 0 30 28" fill="none" xmlns="http://www.w3.org/2000/svg">
<path d="M20.2007 20H22.953L28 27H2L6.50371 20H9.26313" stroke="#C8C8C8" stroke-width="2" stroke-miterlimit="10" stroke-linecap="round"/>
<path d="M22.3986 8.65144C22.3986 4.60056 19.1105 1.3125 15.0596 1.3125C11.0088 1.3125 7.7207 4.60056 7.7207 8.65144C7.7207 14.1491 15.0596 23.075 15.0596 23.075C15.0596 23.075 22.3986 13.9123 22.3986 8.65144Z" stroke="#C8C8C8" stroke-width="2" stroke-miterlimit="10" stroke-linecap="round"/>
<path d="M16.2171 11.7636C15.8576 11.9039 15.4631 11.9828 15.051 11.9828C13.2798 11.9828 11.8506 10.5448 11.8506 8.78241C11.8506 7.02001 13.2886 5.58203 15.0597 5.58203C16.8309 5.58203 18.2601 7.01124 18.2601 8.78241C18.2601 9.25575 18.1567 9.69893 17.974 10.0999" stroke="#C8C8C8" stroke-width="2" stroke-miterlimit="10" stroke-linecap="round"/>
</svg>