<svg width="35" height="35" viewBox="0 0 35 35" fill="none" xmlns="http://www.w3.org/2000/svg">
<path d="M28.3824 1.61719H6.61719C3.85576 1.61719 1.61719 3.85576 1.61719 6.61719V28.3824C1.61719 31.1438 3.85576 33.3824 6.61719 33.3824H28.3824C31.1438 33.3824 33.3824 31.1438 33.3824 28.3824V6.61719C33.3824 3.85576 31.1438 1.61719 28.3824 1.61719Z" fill="white" stroke="#444444" stroke-width="2" stroke-miterlimit="10" stroke-linecap="round" stroke-linejoin="round"/>
<path d="M33.3824 5.9082L1.61719 24.424" stroke="#444444" stroke-width="2" stroke-miterlimit="10" stroke-linecap="round" stroke-linejoin="round"/>
<path d="M17.0771 1.61719L23.0104 11.8413" stroke="#444444" stroke-width="2" stroke-miterlimit="10" stroke-linecap="round" stroke-linejoin="round"/>
<path d="M12.7183 18.084L21.5965 33.3831" stroke="#444444" stroke-width="2" stroke-miterlimit="10" stroke-linecap="round" stroke-linejoin="round"/>
<path d="M1.8335 14.627L6.05651 21.8999" stroke="#444444" stroke-width="2" stroke-miterlimit="10" stroke-linecap="round" stroke-linejoin="round"/>
<path d="M30.6019 26.6395C30.5999 28.8472 28.8096 30.6358 26.6019 30.6358H25.5443C24.1107 30.6358 22.7867 29.8685 22.0738 28.6247L18.5041 22.3956C17.4081 20.4832 18.0658 18.0446 19.9747 16.9426L24.6103 14.2664C27.2784 12.726 30.6131 14.6535 30.6102 17.7343L30.6019 26.6395Z" fill="#0073BD"/>
</svg>