<svg width="100" height="28" viewBox="0 0 100 28" fill="none" xmlns="http://www.w3.org/2000/svg">
<path d="M37.7655 8.15504C36.9955 6.43504 35.8654 5.00504 34.3654 3.87504C33.2055 2.99504 31.8654 2.36504 30.3354 1.98504C28.8054 1.60504 26.7155 1.41504 24.0655 1.41504H17.3354V22.005V26.535H22.6154H24.4855C27.1355 26.535 29.1554 26.355 30.5254 25.995C31.8954 25.635 33.1554 25.045 34.2754 24.215C35.4655 23.335 36.4254 22.265 37.1654 21.005C37.3654 20.665 37.5655 20.315 37.7255 19.945C38.5155 18.225 38.9055 16.245 38.9055 14.015C38.9155 11.835 38.5355 9.87504 37.7655 8.15504ZM22.6154 22.015V5.98504H25.5455C28.3055 5.98504 30.3254 6.62504 31.5854 7.91504C32.8454 9.20504 33.4854 11.225 33.4854 13.995C33.4854 16.775 32.8554 18.805 31.5854 20.085C30.3254 21.365 28.3055 22.005 25.5455 22.005H22.6154V22.015Z" fill="#213B7A"/>
<path d="M0.115234 26.545V1.41504H14.6452V5.94504H5.39523V11.115H14.6452V15.675H5.39523V21.975H14.6452V26.535H0.115234V26.545Z" fill="#213B7A"/>
<path d="M91.4753 15.0448C91.2153 16.0748 91.0253 17.0948 90.8953 18.1048C90.7653 19.1148 90.6853 20.1448 90.6653 21.1848C90.4853 19.9448 90.2953 18.8348 90.0953 17.8348C89.8953 16.8348 89.6753 15.9048 89.4353 15.0348L85.9153 1.9448C83.8253 2.1148 81.9553 2.3148 80.2853 2.5448L76.9553 15.1248L76.8753 15.4848C76.3053 17.7148 75.9053 19.5548 75.6953 21.0148C75.6353 19.9148 75.5553 18.9048 75.4453 17.9648C75.3353 17.0248 75.1853 16.1648 75.0053 15.3648L72.3753 4.1048C69.9853 4.7748 68.5153 5.44481 67.6353 5.9548L72.9253 26.5448H77.9953L82.4453 10.5148C82.6353 9.8548 82.7953 9.1448 82.9053 8.3848C83.0253 7.6348 83.1153 6.8248 83.1653 5.9848C83.2053 6.7848 83.2953 7.5548 83.4153 8.3048C83.5353 9.0448 83.7053 9.7848 83.9253 10.5148L88.3453 26.5448H93.4153L99.8853 1.4248C98.0453 1.4248 96.3053 1.4548 94.6553 1.4948L91.4753 15.0448Z" fill="#0E5EA9"/>
<path d="M52.4954 5.49554C54.7854 5.08554 56.9454 5.58554 58.6854 6.68554C60.5854 7.88554 62.9154 8.13554 64.9454 7.18554C65.0454 7.13554 65.1454 7.08554 65.2454 7.04554C62.6654 2.90554 57.8554 0.295541 52.4954 0.925541C50.8954 1.11554 49.3854 1.60554 48.0054 2.32554L50.1454 6.30554C50.8754 5.92554 51.6654 5.64554 52.4954 5.49554Z" fill="#213B7A"/>
<path d="M45.5353 12.7352C45.7653 11.1252 46.4653 9.6452 47.4753 8.4452C48.9153 6.7452 49.0653 4.2952 48.0053 2.3252C44.4753 4.1752 41.8553 7.5852 41.1253 11.6252C40.5953 14.5852 41.0853 17.3752 42.2653 19.7752C43.6253 18.9552 44.9253 18.1752 46.1553 17.4352C45.5453 16.0252 45.2853 14.4152 45.5353 12.7352Z" fill="#213B7A"/>
<path d="M55.3151 22.5548C52.5951 22.9248 50.0751 22.0348 48.2651 20.3848C46.6251 18.8848 44.2151 18.6048 42.3051 19.7548L42.2651 19.7748C44.6951 24.7348 50.1251 27.9448 56.1951 27.0048C57.7251 26.7648 59.1751 26.2448 60.4851 25.5148L58.3251 21.5048C57.4051 22.0348 56.3951 22.4048 55.3151 22.5548Z" fill="#0E5EA9"/>
<path d="M65.255 7.03516C63.885 7.67516 62.515 8.33516 61.155 9.02516C62.425 10.8252 63.025 13.1252 62.585 15.5752C62.355 16.8752 61.815 18.0652 61.065 19.0852C59.665 20.9652 59.375 23.4452 60.485 25.5152C63.815 23.6552 66.285 20.3952 67.015 16.5452C67.685 13.0252 66.925 9.71516 65.255 7.03516Z" fill="#0E5EA9"/>
<path d="M54.2452 16.135C55.5597 16.135 56.6252 15.0694 56.6252 13.755C56.6252 12.4406 55.5597 11.375 54.2452 11.375C52.9308 11.375 51.8652 12.4406 51.8652 13.755C51.8652 15.0694 52.9308 16.135 54.2452 16.135Z" fill="#213B7A"/>
</svg>
