<svg width="75" height="20" viewBox="0 0 75 20" fill="none" xmlns="http://www.w3.org/2000/svg">
<g style="mix-blend-mode:soft-light">
<path d="M28.3027 5.56399C27.7238 4.25849 26.8744 3.1731 25.7468 2.31541C24.8748 1.64748 23.8674 1.1693 22.7173 0.88088C21.5672 0.592455 19.996 0.448242 18.004 0.448242H12.9448V16.0763V19.5147H16.914H18.3197C20.3118 19.5147 21.8303 19.378 22.8601 19.1048C23.89 18.8315 24.8372 18.3837 25.6791 17.7537C26.5737 17.0858 27.2953 16.2737 27.8516 15.3173C28.002 15.0592 28.1523 14.7936 28.2726 14.5128C28.8664 13.2073 29.1596 11.7044 29.1596 10.0118C29.1671 8.35716 28.8815 6.86949 28.3027 5.56399ZM16.914 16.0839V3.91693H19.1165C21.1913 3.91693 22.7098 4.4027 23.657 5.38183C24.6041 6.36096 25.0852 7.89416 25.0852 9.99663C25.0852 12.1067 24.6117 13.6475 23.657 14.619C22.7098 15.5906 21.1913 16.0763 19.1165 16.0763H16.914V16.0839Z" fill="white"/>
<path d="M0 19.5222V0.448242H10.9226V3.88657H3.96913V7.81067H10.9226V11.2718H3.96913V16.0536H10.9226V19.5147H0V19.5222Z" fill="white"/>
<path d="M68.6781 10.7928C68.4826 11.5746 68.3398 12.3488 68.2421 13.1154C68.1443 13.882 68.0842 14.6638 68.0692 15.4532C67.9338 14.512 67.791 13.6695 67.6407 12.9105C67.4903 12.1515 67.3249 11.4456 67.1445 10.7853L64.4984 0.849765C62.9273 0.978797 61.5216 1.1306 60.2662 1.30517L57.763 10.8536L57.7028 11.1268C57.2743 12.8194 56.9736 14.216 56.8158 15.3242C56.7707 14.4892 56.7105 13.7226 56.6278 13.0092C56.5452 12.2957 56.4324 11.6429 56.2971 11.0357L54.32 2.48923C52.5234 2.99777 51.4184 3.50631 50.7568 3.89341L54.7335 19.5215H58.5447L61.8899 7.35451C62.0328 6.85356 62.1531 6.31466 62.2357 5.73781C62.3259 5.16855 62.3936 4.55375 62.4312 3.91618C62.4613 4.52339 62.5289 5.10783 62.6191 5.67709C62.7093 6.23876 62.8371 6.80043 63.0025 7.35451L66.3252 19.5215H70.1364L75.0001 0.455078C73.6169 0.455078 72.3089 0.477849 71.0686 0.508209L68.6781 10.7928Z" fill="white"/>
<path d="M71.0834 0.448242L71.0684 0.501373C72.3087 0.471013 73.6167 0.448242 74.9999 0.448242H71.0834Z" fill="white"/>
<path d="M39.3755 3.54455C41.097 3.23335 42.7207 3.61286 44.0287 4.44777C45.457 5.35859 47.2085 5.54834 48.7345 4.82728C48.8097 4.78933 48.8849 4.75138 48.9601 4.72102C47.0206 1.5787 43.4048 -0.40232 39.3755 0.0758583C38.1727 0.220071 37.0376 0.591987 36.0002 1.13848L37.6089 4.15935C38.1577 3.87092 38.7516 3.6584 39.3755 3.54455Z" fill="white"/>
<path d="M34.1435 9.04C34.3164 7.81799 34.8426 6.69465 35.6019 5.78383C36.6843 4.49351 36.7971 2.63393 36.0003 1.13867C33.3467 2.54285 31.3771 5.13108 30.8284 8.1975C30.43 10.4442 30.7983 12.5618 31.6853 14.3835C32.7077 13.7611 33.6849 13.169 34.6096 12.6074C34.151 11.5372 33.9556 10.3151 34.1435 9.04Z" fill="white"/>
<path d="M41.4954 16.4936C39.4507 16.7744 37.5563 16.0989 36.1957 14.8465C34.9628 13.708 33.1512 13.4955 31.7154 14.3684L31.6853 14.3836C33.512 18.1483 37.5939 20.5847 42.1569 19.8712C43.307 19.6891 44.397 19.2944 45.3818 18.7403L43.7581 15.6966C43.0665 16.0989 42.3072 16.3798 41.4954 16.4936Z" fill="white"/>
<path d="M48.9675 4.71387C47.9377 5.19964 46.9078 5.70058 45.8854 6.2243C46.8401 7.59053 47.2912 9.33626 46.9604 11.1958C46.7875 12.1826 46.3816 13.0858 45.8178 13.86C44.7654 15.2869 44.5473 17.1693 45.3818 18.7404C47.885 17.3287 49.7418 14.8543 50.2906 11.9321C50.7942 9.26036 50.2229 6.74802 48.9675 4.71387Z" fill="white"/>
<path d="M40.691 11.6207C41.6791 11.6207 42.4801 10.8119 42.4801 9.81426C42.4801 8.81659 41.6791 8.00781 40.691 8.00781C39.7029 8.00781 38.9019 8.81659 38.9019 9.81426C38.9019 10.8119 39.7029 11.6207 40.691 11.6207Z" fill="white"/>
</g>
</svg>
