<svg width="108" height="71" viewBox="0 0 108 71" fill="none" xmlns="http://www.w3.org/2000/svg">
<path d="M88.6643 47.2443V55.6828C88.6643 57.5684 87.143 59.0931 85.2617 59.0931H5.14428C3.26299 59.0931 1.7417 57.5684 1.7417 55.6828V5.15642C1.7417 3.27085 3.26299 1.74609 5.14428 1.74609H85.2617C87.143 1.74609 88.6643 3.27085 88.6643 5.15642V17.4476" stroke="white" stroke-width="3" stroke-miterlimit="10"/>
<path d="M1.7417 46.5576H65.5198" stroke="white" stroke-width="3" stroke-miterlimit="10"/>
<path d="M27.1973 69.7314H63.2089" stroke="white" stroke-width="3" stroke-miterlimit="10"/>
<path d="M40.8892 59.0928L39.2285 70.1618" stroke="white" stroke-width="3" stroke-miterlimit="10"/>
<path d="M50.7251 59.0928L52.3741 70.1618" stroke="white" stroke-width="3" stroke-miterlimit="10"/>
<path d="M12.1704 11.6396H38.5898" stroke="white" stroke-width="3" stroke-miterlimit="10"/>
<path d="M12.1704 19.3564H46.1149" stroke="white" stroke-width="3" stroke-miterlimit="10"/>
<path d="M42.7588 11.6396H46.1149" stroke="white" stroke-width="3" stroke-miterlimit="10"/>
<path d="M46.1147 27.0732H19.6953" stroke="white" stroke-width="3" stroke-miterlimit="10"/>
<path d="M15.5149 27.0732H12.1704" stroke="white" stroke-width="3" stroke-miterlimit="10"/>
<path d="M13.7092 37.0365C14.5237 37.0365 15.1841 36.3747 15.1841 35.5583C15.1841 34.7419 14.5237 34.0801 13.7092 34.0801C12.8947 34.0801 12.2344 34.7419 12.2344 35.5583C12.2344 36.3747 12.8947 37.0365 13.7092 37.0365Z" fill="white"/>
<path d="M21.4031 37.0365C22.2176 37.0365 22.8779 36.3747 22.8779 35.5583C22.8779 34.7419 22.2176 34.0801 21.4031 34.0801C20.5885 34.0801 19.9282 34.7419 19.9282 35.5583C19.9282 36.3747 20.5885 37.0365 21.4031 37.0365Z" fill="white"/>
<path d="M28.4817 37.0365C29.2962 37.0365 29.9565 36.3747 29.9565 35.5583C29.9565 34.7419 29.2962 34.0801 28.4817 34.0801C27.6671 34.0801 27.0068 34.7419 27.0068 35.5583C27.0068 36.3747 27.6671 37.0365 28.4817 37.0365Z" fill="white"/>
<path d="M88.1073 46.8488L88.1305 46.8371L100.08 58.8373C101.369 60.1293 103.471 60.1293 104.76 58.8373C106.049 57.5453 106.049 55.4386 104.76 54.1466L92.6943 42.2047L92.555 42.065C94.4131 39.1784 95.4931 35.7332 95.4931 32.0435C95.4931 21.8125 87.2131 13.5137 77.0053 13.5137C66.7976 13.5137 58.5176 21.8125 58.5176 32.0435C58.5176 42.2745 66.7976 50.5733 77.0053 50.5733C81.186 50.5733 85.0298 49.1883 88.1305 46.8488" stroke="white" stroke-width="3" stroke-miterlimit="10"/>
<path d="M77.0051 43.9971C83.5919 43.9971 88.9315 38.6452 88.9315 32.0435C88.9315 25.4417 83.5919 20.0898 77.0051 20.0898C70.4183 20.0898 65.0786 25.4417 65.0786 32.0435C65.0786 38.6452 70.4183 43.9971 77.0051 43.9971Z" fill="white"/>
<path d="M63.231 41.4936L72.0002 32.7339L76.6156 37.3443L92.3079 21.6689" stroke="#2B83EA" stroke-width="3"/>
<path d="M83.5386 30.4285L96.0001 17.9805" stroke="white" stroke-width="3"/>
<path d="M87.1155 29.5069C87.1155 31.2232 85.7223 32.6173 84.0001 32.6173C82.278 32.6173 80.8848 31.2232 80.8848 29.5069C80.8848 27.7906 82.278 26.3965 84.0001 26.3965C85.7223 26.3965 87.1155 27.7906 87.1155 29.5069Z" fill="white" stroke="#2B83EA" stroke-width="3"/>
<path d="M101.885 15.6748C101.885 17.3911 100.491 18.7852 98.7692 18.7852C97.0471 18.7852 95.6538 17.3911 95.6538 15.6748C95.6538 13.9586 97.0471 12.5645 98.7692 12.5645C100.491 12.5645 101.885 13.9586 101.885 15.6748Z" fill="#2B83EA" stroke="white" stroke-width="3"/>
</svg>