<svg width="96" height="96" viewBox="0 0 96 96" fill="none" xmlns="http://www.w3.org/2000/svg">
<path d="M52.3785 72.6145L51.5648 77.486H44.4547L43.6058 72.6047L43.4348 71.6217L42.4622 71.3994C41.9893 71.2913 41.5283 71.1753 41.0921 71.0383L40.128 70.7353L39.4851 71.515L36.3412 75.3277L30.1952 71.7744L31.9037 67.129L32.249 66.1902L31.515 65.5106C31.1488 65.1715 30.8161 64.8507 30.5034 64.513L29.8207 63.7756L28.8791 64.1265L24.2378 65.8558L20.6804 59.6924L24.4803 56.5072L25.2265 55.8817L24.959 54.9455C24.8169 54.4482 24.6894 54.0004 24.5886 53.5467L24.3692 52.5592L23.3715 52.3926L18.5 51.5788V44.4687L23.3813 43.6198L24.3643 43.4488L24.5866 42.4762C24.6947 42.0033 24.8106 41.5423 24.9477 41.1062L25.2507 40.142L24.471 39.4991L20.6575 36.3547L24.2148 30.1915L28.8902 31.8916L29.8473 32.2397L30.5044 31.5004C30.8513 31.1397 31.1663 30.8134 31.501 30.5034L32.2384 29.8207L31.8875 28.8791L30.1579 24.2369L36.3082 20.6811L39.4928 24.4803L40.1353 25.2467L41.0722 24.9539C41.5624 24.8139 42.005 24.6882 42.4533 24.5886L43.4408 24.3692L43.6074 23.3715L44.4212 18.5H51.5313L52.3802 23.3813L52.5512 24.3643L53.5238 24.5866C53.9967 24.6947 54.4577 24.8106 54.8938 24.9477L55.858 25.2507L56.5009 24.471L59.6453 20.6575L65.8053 24.213L64.0959 28.8721L63.7516 29.8104L64.485 30.4894C64.8512 30.8285 65.1838 31.1493 65.4966 31.487L66.1793 32.2244L67.1209 31.8735L71.7622 30.1442L75.3196 36.3076L71.5197 39.4929L70.7735 40.1183L71.041 41.0545L71.041 41.0547C71.1831 41.5519 71.3106 41.9997 71.4114 42.4533L71.6308 43.4408L72.6285 43.6074L77.5 44.4212V51.5336L72.6019 52.3947L71.6212 52.5671L71.3994 53.5378C71.2913 54.0107 71.1753 54.4717 71.0383 54.9079L70.7353 55.872L71.515 56.5149L75.327 59.6582L71.7748 65.792L67.1139 64.0818L66.1756 63.7376L65.4966 64.4709C65.1574 64.8372 64.8367 65.1698 64.499 65.4825L63.7616 66.1653L64.1125 67.1069L65.8418 71.7482L59.6784 75.3056L56.4931 71.5057L55.8759 70.7693L54.9489 71.0221L54.9488 71.0221L54.9401 71.0245L54.9314 71.027C54.4341 71.1691 53.9863 71.2966 53.5327 71.3974L52.5452 71.6168L52.3785 72.6145Z" stroke="white" stroke-width="3"/>
<path d="M47.7939 7.58577C49.455 7.58577 50.8016 6.23916 50.8016 4.57804C50.8016 2.91692 49.455 1.57031 47.7939 1.57031C46.1327 1.57031 44.7861 2.91692 44.7861 4.57804C44.7861 6.23916 46.1327 7.58577 47.7939 7.58577Z" stroke="white" stroke-width="3" stroke-miterlimit="10"/>
<path d="M47.7939 93.8074C49.455 93.8074 50.8016 92.4608 50.8016 90.7997C50.8016 89.1386 49.455 87.792 47.7939 87.792C46.1327 87.792 44.7861 89.1386 44.7861 90.7997C44.7861 92.4608 46.1327 93.8074 47.7939 93.8074Z" stroke="white" stroke-width="3" stroke-miterlimit="10"/>
<path d="M90.9042 50.6961C92.5653 50.6961 93.9119 49.3495 93.9119 47.6884C93.9119 46.0273 92.5653 44.6807 90.9042 44.6807C89.2431 44.6807 87.8965 46.0273 87.8965 47.6884C87.8965 49.3495 89.2431 50.6961 90.9042 50.6961Z" stroke="white" stroke-width="3" stroke-miterlimit="10"/>
<path d="M4.68302 50.6961C6.34414 50.6961 7.69075 49.3495 7.69075 47.6884C7.69075 46.0273 6.34414 44.6807 4.68302 44.6807C3.0219 44.6807 1.67529 46.0273 1.67529 47.6884C1.67529 49.3495 3.0219 50.6961 4.68302 50.6961Z" stroke="white" stroke-width="3" stroke-miterlimit="10"/>
<path d="M88.8453 34.3206C83.4538 18.0554 68.6625 6.06982 50.9233 4.80273" stroke="white" stroke-width="3" stroke-miterlimit="10"/>
<path d="M90.5777 29.1621L88.9486 34.4115L83.6992 32.7694" stroke="white" stroke-width="3" stroke-miterlimit="10"/>
<path d="M57.8193 89.7967C75.5523 85.4493 89.3301 70.0561 90.9043 50.6963" stroke="white" stroke-width="3" stroke-miterlimit="10"/>
<path d="M62.8322 91.8022L57.8193 89.7753L59.8423 84.7842" stroke="white" stroke-width="3" stroke-miterlimit="10"/>
<path d="M6.5498 61.667C11.9543 77.9968 26.8361 90.0083 44.6787 91.1978" stroke="white" stroke-width="3" stroke-miterlimit="10"/>
<path d="M4.8042 66.8255L6.43331 61.5762L11.6827 63.2053" stroke="white" stroke-width="3" stroke-miterlimit="10"/>
<path d="M37.7681 6.58301C20.0482 10.8189 6.25734 25.8175 4.68311 44.6809" stroke="white" stroke-width="3" stroke-miterlimit="10"/>
<path d="M32.7549 4.57812L37.7678 6.59597L35.7372 11.5962" stroke="white" stroke-width="3" stroke-miterlimit="10"/>
<path d="M65 47.4932C65 38.3833 57.3898 31 48 31C38.6102 31 31 38.3833 31 47.4932C31 55.2628 36.534 61.7677 43.9881 63.517L47.7424 68L51.3797 63.6533C59.146 62.1388 65 55.4824 65 47.4932Z" fill="white"/>
<path d="M48 40V52" stroke="#FF8311" stroke-width="3"/>
<path d="M48 54V57" stroke="#FF8311" stroke-width="3"/>
</svg>