<svg width="922" height="233" viewBox="0 0 922 233" fill="none" xmlns="http://www.w3.org/2000/svg">
<rect x="33" y="38" width="889" height="1" fill="#EEEEEE"/>
<rect x="33" y="61" width="889" height="1" fill="#EEEEEE"/>
<rect x="33" y="84" width="889" height="1" fill="#EEEEEE"/>
<rect x="33" y="107" width="889" height="1" fill="#EEEEEE"/>
<rect x="33" y="130" width="889" height="1" fill="#EEEEEE"/>
<rect x="33" y="153" width="889" height="1" fill="#EEEEEE"/>
<rect x="33" y="176" width="889" height="1" fill="#EEEEEE"/>
<rect x="33" y="199" width="889" height="1" fill="#EEEEEE"/>
<rect x="33" y="222" width="889" height="1" fill="#EEEEEE"/>
<path d="M3.043 21.418C2.211 20.6033 1.561 19.5677 1.093 18.311C0.633667 17.0543 0.404 15.698 0.404 14.242C0.404 12.7513 0.646667 11.3603 1.132 10.069C1.626 8.769 2.328 7.69867 3.238 6.858H4.473V6.975C3.50233 7.885 2.77 8.98133 2.276 10.264C1.79067 11.538 1.548 12.864 1.548 14.242C1.548 15.5853 1.77767 16.868 2.237 18.09C2.705 19.312 3.38533 20.3823 4.278 21.301V21.418H3.043ZM5.07232 15.412C5.07232 14.684 5.21965 14.047 5.51432 13.501C5.80899 12.9463 6.21199 12.5173 6.72332 12.214C7.24332 11.9107 7.82399 11.759 8.46532 11.759C9.01999 11.759 9.53565 11.889 10.0123 12.149C10.489 12.4003 10.853 12.734 11.1043 13.15V9.38H12.3003V19H11.1043V17.661C10.8703 18.0857 10.5237 18.4367 10.0643 18.714C9.60499 18.9827 9.06765 19.117 8.45232 19.117C7.81965 19.117 7.24332 18.961 6.72332 18.649C6.21199 18.337 5.80899 17.8993 5.51432 17.336C5.21965 16.7727 5.07232 16.1313 5.07232 15.412ZM11.1043 15.425C11.1043 14.8877 10.996 14.4197 10.7793 14.021C10.5627 13.6223 10.268 13.319 9.89532 13.111C9.53132 12.8943 9.12832 12.786 8.68632 12.786C8.24432 12.786 7.84132 12.89 7.47732 13.098C7.11332 13.306 6.82299 13.6093 6.60632 14.008C6.38965 14.4067 6.28132 14.8747 6.28132 15.412C6.28132 15.958 6.38965 16.4347 6.60632 16.842C6.82299 17.2407 7.11332 17.5483 7.47732 17.765C7.84132 17.973 8.24432 18.077 8.68632 18.077C9.12832 18.077 9.53132 17.973 9.89532 17.765C10.268 17.5483 10.5627 17.2407 10.7793 16.842C10.996 16.4347 11.1043 15.9623 11.1043 15.425ZM18.4465 14.333C18.7758 14.385 19.0748 14.5193 19.3435 14.736C19.6208 14.9527 19.8375 15.2213 19.9935 15.542C20.1581 15.8627 20.2405 16.205 20.2405 16.569C20.2405 17.0283 20.1235 17.4443 19.8895 17.817C19.6555 18.181 19.3131 18.4713 18.8625 18.688C18.4205 18.896 17.8961 19 17.2895 19H13.9095V9.939H17.1595C17.7748 9.939 18.2991 10.043 18.7325 10.251C19.1658 10.4503 19.4908 10.7233 19.7075 11.07C19.9241 11.4167 20.0325 11.8067 20.0325 12.24C20.0325 12.7773 19.8851 13.2237 19.5905 13.579C19.3045 13.9257 18.9231 14.177 18.4465 14.333ZM15.0925 13.852H17.0815C17.6361 13.852 18.0651 13.722 18.3685 13.462C18.6718 13.202 18.8235 12.8423 18.8235 12.383C18.8235 11.9237 18.6718 11.564 18.3685 11.304C18.0651 11.044 17.6275 10.914 17.0555 10.914H15.0925V13.852ZM17.1855 18.025C17.7748 18.025 18.2341 17.8863 18.5635 17.609C18.8928 17.3317 19.0575 16.946 19.0575 16.452C19.0575 15.9493 18.8841 15.555 18.5375 15.269C18.1908 14.9743 17.7271 14.827 17.1465 14.827H15.0925V18.025H17.1855ZM21.1151 21.418V21.301C22.0078 20.3823 22.6838 19.312 23.1431 18.09C23.6111 16.868 23.8451 15.5853 23.8451 14.242C23.8451 12.864 23.5981 11.538 23.1041 10.264C22.6188 8.98133 21.8908 7.885 20.9201 6.975V6.858H22.1551C23.0651 7.69867 23.7628 8.769 24.2481 10.069C24.7421 11.3603 24.9891 12.7513 24.9891 14.242C24.9891 15.698 24.7551 17.0543 24.2871 18.311C23.8278 19.5677 23.1821 20.6033 22.3501 21.418H21.1151Z" fill="#666666"/>
<path d="M7.663 42.896H13.916V41.908H9.444C11.121 40.543 13.643 38.554 13.643 36.214C13.643 34.472 12.499 33.432 10.731 33.432C9.041 33.432 7.78 34.472 7.702 36.474H8.846C8.898 35.291 9.522 34.446 10.744 34.446C12.018 34.446 12.473 35.226 12.473 36.266C12.473 38.19 10.133 40.062 7.663 42.051V42.896ZM15.8295 43H17.0255V33.601H14.5815V34.68H15.8295V43Z" fill="#666666"/>
<path d="M8.742 66H9.938V56.601H7.494V57.68H8.742V66ZM12.0091 63.478C12.1391 64.856 13.0491 66.013 14.9211 66.013C17.3911 66.013 18.1061 64.258 18.1061 61.125C18.1061 58.213 17.3651 56.419 14.8171 56.419C12.7891 56.419 11.7231 57.719 11.7231 59.513C11.7231 61.502 13.0101 62.581 14.7391 62.581C15.7531 62.581 16.6891 62.126 17.0661 61.333C17.1051 64.089 16.3641 65.025 14.9861 65.025C13.8941 65.025 13.2701 64.453 13.1011 63.478H12.0091ZM14.9341 61.58C13.5301 61.58 12.8541 60.696 12.8541 59.487C12.8541 58.239 13.6211 57.407 14.8431 57.407C16.1951 57.407 16.9231 58.304 16.9231 59.578C16.9231 60.839 16.0651 61.58 14.9341 61.58Z" fill="#666666"/>
<path d="M9.742 89H10.938V79.601H8.494V80.68H9.742V89ZM12.2031 79.627V80.641H17.2211L13.5551 89H14.7511L18.3651 80.524V79.627H12.2031Z" fill="#666666"/>
<path d="M8.742 112H9.938V102.601H7.494V103.68H8.742V112ZM11.9181 102.588V107.892H13.0361C13.3481 107.151 14.0371 106.657 14.9861 106.657C16.3511 106.657 17.0401 107.437 17.0401 108.776C17.0401 110.063 16.4031 111.025 14.9731 111.025C13.8681 111.025 13.1011 110.44 12.8801 109.452H11.7231C11.9571 110.973 13.0881 112.026 14.9601 112.026C17.1571 112.026 18.1711 110.57 18.1711 108.75C18.1711 107.294 17.4431 105.643 15.1551 105.643C14.2321 105.643 13.4001 106.059 13.0101 106.592V103.628H17.5731V102.588H11.9181Z" fill="#666666"/>
<path d="M8.742 135H9.938V125.601H7.494V126.68H8.742V135ZM11.5541 127.967H12.7111C12.8281 127.057 13.4911 126.433 14.5961 126.433C15.7271 126.433 16.3251 127.057 16.3251 127.954C16.3251 129.046 15.4801 129.527 13.9071 129.54H13.5951V130.528H13.8941C15.5841 130.528 16.5071 131.035 16.5071 132.361C16.5071 133.323 15.9091 134.064 14.6481 134.064C13.4001 134.064 12.6721 133.297 12.5551 132.296H11.4111C11.5541 134.116 12.8801 135.065 14.6611 135.065C16.6241 135.065 17.6381 133.921 17.6381 132.465C17.6381 131.113 16.8971 130.307 15.8051 130.047V129.982C16.7931 129.761 17.4691 128.916 17.4691 127.837C17.4691 126.485 16.4681 125.419 14.6351 125.419C12.8931 125.419 11.6711 126.355 11.5541 127.967Z" fill="#666666"/>
<path d="M10.742 159H11.938V149.601H9.494V150.68H10.742V159ZM14.5161 159H15.7121V149.601H13.2681V150.68H14.5161V159Z" fill="#666666"/>
<path d="M10.235 178.478C10.365 179.856 11.275 181.013 13.147 181.013C15.617 181.013 16.332 179.258 16.332 176.125C16.332 173.213 15.591 171.419 13.043 171.419C11.015 171.419 9.949 172.719 9.949 174.513C9.949 176.502 11.236 177.581 12.965 177.581C13.979 177.581 14.915 177.126 15.292 176.333C15.331 179.089 14.59 180.025 13.212 180.025C12.12 180.025 11.496 179.453 11.327 178.478H10.235ZM13.16 176.58C11.756 176.58 11.08 175.696 11.08 174.487C11.08 173.239 11.847 172.407 13.069 172.407C14.421 172.407 15.149 173.304 15.149 174.578C15.149 175.839 14.291 176.58 13.16 176.58Z" fill="#666666"/>
<path d="M9.429 194.627V195.641H14.447L10.781 204H11.977L15.591 195.524V194.627H9.429Z" fill="#666666"/>
<path d="M10.144 217.588V222.892H11.262C11.574 222.151 12.263 221.657 13.212 221.657C14.577 221.657 15.266 222.437 15.266 223.776C15.266 225.063 14.629 226.025 13.199 226.025C12.094 226.025 11.327 225.44 11.106 224.452H9.949C10.183 225.973 11.314 227.026 13.186 227.026C15.383 227.026 16.397 225.57 16.397 223.75C16.397 222.294 15.669 220.643 13.381 220.643C12.458 220.643 11.626 221.059 11.236 221.592V218.628H15.799V217.588H10.144Z" fill="#666666"/>
<path d="M449.797 9.414C447.305 8.994 445.275 7.118 445.275 5.158V4.206H443.749V5.158C443.749 7.104 441.719 8.994 439.213 9.414L439.829 10.618C441.887 10.212 443.679 8.952 444.519 7.272C445.331 8.952 447.123 10.212 449.195 10.618L449.797 9.414ZM445.219 13.32V10.366H443.777V13.32H438.835V14.51H450.287V13.32H445.219ZM457.426 3.702C454.668 3.702 452.918 4.612 452.918 6.124C452.918 7.622 454.668 8.546 457.426 8.546C460.184 8.546 461.934 7.622 461.934 6.124C461.934 4.612 460.184 3.702 457.426 3.702ZM457.426 4.822C459.302 4.822 460.436 5.284 460.436 6.124C460.436 6.95 459.302 7.412 457.426 7.412C455.55 7.412 454.402 6.95 454.402 6.124C454.402 5.284 455.55 4.822 457.426 4.822ZM453.072 11.696V15.924H461.752V11.696H453.072ZM460.338 12.844V14.776H454.5V12.844H460.338ZM451.7 9.47V10.618H463.138V9.47H451.7Z" fill="#444444"/>
<path d="M562 10H582" stroke="#085DAA" stroke-width="2"/>
<path d="M572 12.5C573.657 12.5 575 11.1569 575 9.5C575 7.84315 573.657 6.5 572 6.5C570.343 6.5 569 7.84315 569 9.5C569 11.1569 570.343 12.5 572 12.5Z" fill="#085DAA" stroke="white" stroke-miterlimit="10"/>
<path d="M593.433 14H594.681L591.418 4.991H590.053L586.777 14H588.025L588.753 11.985H592.705L593.433 14ZM592.367 11.023H589.091L590.729 6.447L592.367 11.023ZM595.472 9.736H600.659V8.735H595.472V9.736ZM603.23 14H604.426V4.601H601.982V5.68H603.23V14Z" fill="#444444"/>
<path d="M626 10H646" stroke="#BDBDBD" stroke-width="2"/>
<path d="M636 12.5C637.657 12.5 639 11.1569 639 9.5C639 7.84315 637.657 6.5 636 6.5C634.343 6.5 633 7.84315 633 9.5C633 11.1569 634.343 12.5 636 12.5Z" fill="#BDBDBD" stroke="white" stroke-miterlimit="10"/>
<path d="M656.276 14H657.524L654.261 4.991H652.896L649.62 14H650.868L651.596 11.985H655.548L656.276 14ZM655.21 11.023H651.934L653.572 6.447L655.21 11.023ZM658.315 9.736H663.502V8.735H658.315V9.736ZM664.994 13.896H671.247V12.908H666.775C668.452 11.543 670.974 9.554 670.974 7.214C670.974 5.472 669.83 4.432 668.062 4.432C666.372 4.432 665.111 5.472 665.033 7.474H666.177C666.229 6.291 666.853 5.446 668.075 5.446C669.349 5.446 669.804 6.226 669.804 7.266C669.804 9.19 667.464 11.062 664.994 13.051V13.896Z" fill="#444444"/>
<path d="M692 10H712" stroke="#FF8C22" stroke-width="2"/>
<path d="M702 12.5C703.657 12.5 705 11.1569 705 9.5C705 7.84315 703.657 6.5 702 6.5C700.343 6.5 699 7.84315 699 9.5C699 11.1569 700.343 12.5 702 12.5Z" fill="#FF8C22" stroke="white" stroke-miterlimit="10"/>
<path d="M722.187 14H723.435L720.172 4.991H718.807L715.531 14H716.779L717.507 11.985H721.459L722.187 14ZM721.121 11.023H717.845L719.483 6.447L721.121 11.023ZM724.226 9.736H729.413V8.735H724.226V9.736ZM731.022 6.967H732.179C732.296 6.057 732.959 5.433 734.064 5.433C735.195 5.433 735.793 6.057 735.793 6.954C735.793 8.046 734.948 8.527 733.375 8.54H733.063V9.528H733.362C735.052 9.528 735.975 10.035 735.975 11.361C735.975 12.323 735.377 13.064 734.116 13.064C732.868 13.064 732.14 12.297 732.023 11.296H730.879C731.022 13.116 732.348 14.065 734.129 14.065C736.092 14.065 737.106 12.921 737.106 11.465C737.106 10.113 736.365 9.307 735.273 9.047V8.982C736.261 8.761 736.937 7.916 736.937 6.837C736.937 5.485 735.936 4.419 734.103 4.419C732.361 4.419 731.139 5.355 731.022 6.967Z" fill="#444444"/>
<path d="M758 10H778" stroke="#FFCE22" stroke-width="2"/>
<path d="M768 12.5C769.657 12.5 771 11.1569 771 9.5C771 7.84315 769.657 6.5 768 6.5C766.343 6.5 765 7.84315 765 9.5C765 11.1569 766.343 12.5 768 12.5Z" fill="#FFCE22" stroke="white" stroke-miterlimit="10"/>
<path d="M788.533 9.242V5.914H790.275C791.627 5.914 792.199 6.538 792.199 7.591C792.199 8.605 791.627 9.242 790.275 9.242H788.533ZM793.408 7.591C793.408 6.109 792.407 4.939 790.275 4.939H787.35V14H788.533V10.217H790.275C792.524 10.217 793.408 8.969 793.408 7.591ZM795.229 14H796.425V4.601H793.981V5.68H795.229V14Z" fill="#444444"/>
<path d="M818 10H838" stroke="#328BF2" stroke-width="2"/>
<path d="M828 12.5C829.657 12.5 831 11.1569 831 9.5C831 7.84315 829.657 6.5 828 6.5C826.343 6.5 825 7.84315 825 9.5C825 11.1569 826.343 12.5 828 12.5Z" fill="#328BF2" stroke="white" stroke-miterlimit="10"/>
<path d="M847.376 9.242V5.914H849.118C850.47 5.914 851.042 6.538 851.042 7.591C851.042 8.605 850.47 9.242 849.118 9.242H847.376ZM852.251 7.591C852.251 6.109 851.25 4.939 849.118 4.939H846.193V14H847.376V10.217H849.118C851.367 10.217 852.251 8.969 852.251 7.591ZM852.993 13.896H859.246V12.908H854.774C856.451 11.543 858.973 9.554 858.973 7.214C858.973 5.472 857.829 4.432 856.061 4.432C854.371 4.432 853.11 5.472 853.032 7.474H854.176C854.228 6.291 854.852 5.446 856.074 5.446C857.348 5.446 857.803 6.226 857.803 7.266C857.803 9.19 855.463 11.062 852.993 13.051V13.896Z" fill="#444444"/>
<path d="M880 10H900" stroke="#51B449" stroke-width="2"/>
<path d="M890 12.5C891.657 12.5 893 11.1569 893 9.5C893 7.84315 891.657 6.5 890 6.5C888.343 6.5 887 7.84315 887 9.5C887 11.1569 888.343 12.5 890 12.5Z" fill="#51B449" stroke="white" stroke-miterlimit="10"/>
<path d="M909.287 9.242V5.914H911.029C912.381 5.914 912.953 6.538 912.953 7.591C912.953 8.605 912.381 9.242 911.029 9.242H909.287ZM914.162 7.591C914.162 6.109 913.161 4.939 911.029 4.939H908.104V14H909.287V10.217H911.029C913.278 10.217 914.162 8.969 914.162 7.591ZM915.022 6.967H916.179C916.296 6.057 916.959 5.433 918.064 5.433C919.195 5.433 919.793 6.057 919.793 6.954C919.793 8.046 918.948 8.527 917.375 8.54H917.063V9.528H917.362C919.052 9.528 919.975 10.035 919.975 11.361C919.975 12.323 919.377 13.064 918.116 13.064C916.868 13.064 916.14 12.297 916.023 11.296H914.879C915.022 13.116 916.348 14.065 918.129 14.065C920.092 14.065 921.106 12.921 921.106 11.465C921.106 10.113 920.365 9.307 919.273 9.047V8.982C920.261 8.761 920.937 7.916 920.937 6.837C920.937 5.485 919.936 4.419 918.103 4.419C916.361 4.419 915.139 5.355 915.022 6.967Z" fill="#444444"/>
<path d="M97 166.5L223.5 139.5L349 176.5" stroke="#085DAA" stroke-width="2"/>
<path d="M97 171.5C99.7614 171.5 102 169.261 102 166.5C102 163.739 99.7614 161.5 97 161.5C94.2386 161.5 92 163.739 92 166.5C92 169.261 94.2386 171.5 97 171.5Z" fill="#085DAA" stroke="white" stroke-width="2" stroke-miterlimit="10"/>
<path d="M224 144.5C226.761 144.5 229 142.261 229 139.5C229 136.739 226.761 134.5 224 134.5C221.239 134.5 219 136.739 219 139.5C219 142.261 221.239 144.5 224 144.5Z" fill="#085DAA" stroke="white" stroke-width="2" stroke-miterlimit="10"/>
<path d="M351 182.5C353.761 182.5 356 180.261 356 177.5C356 174.739 353.761 172.5 351 172.5C348.239 172.5 346 174.739 346 177.5C346 180.261 348.239 182.5 351 182.5Z" fill="#085DAA" stroke="white" stroke-width="2" stroke-miterlimit="10"/>
<path d="M96 93.5L223.5 105.5L347.5 91" stroke="#B7B7B7" stroke-width="2"/>
<path d="M97 98C99.7614 98 102 95.7614 102 93C102 90.2386 99.7614 88 97 88C94.2386 88 92 90.2386 92 93C92 95.7614 94.2386 98 97 98Z" fill="#BDBDBD" stroke="white" stroke-width="2" stroke-miterlimit="10"/>
<path d="M224 110.5C226.761 110.5 229 108.261 229 105.5C229 102.739 226.761 100.5 224 100.5C221.239 100.5 219 102.739 219 105.5C219 108.261 221.239 110.5 224 110.5Z" fill="#BDBDBD" stroke="white" stroke-width="2" stroke-miterlimit="10"/>
<path d="M351 96C353.761 96 356 93.7614 356 91C356 88.2386 353.761 86 351 86C348.239 86 346 88.2386 346 91C346 93.7614 348.239 96 351 96Z" fill="#BDBDBD" stroke="white" stroke-width="2" stroke-miterlimit="10"/>
<path d="M96 79L223.5 83.5L350.5 108" stroke="#FF8C22" stroke-width="2"/>
<path d="M97 83C99.7614 83 102 80.7614 102 78C102 75.2386 99.7614 73 97 73C94.2386 73 92 75.2386 92 78C92 80.7614 94.2386 83 97 83Z" fill="#FF8C22" stroke="white" stroke-width="2" stroke-miterlimit="10"/>
<path d="M224 88.5C226.761 88.5 229 86.2614 229 83.5C229 80.7386 226.761 78.5 224 78.5C221.239 78.5 219 80.7386 219 83.5C219 86.2614 221.239 88.5 224 88.5Z" fill="#FF8C22" stroke="white" stroke-width="2" stroke-miterlimit="10"/>
<path d="M351 113C353.761 113 356 110.761 356 108C356 105.239 353.761 103 351 103C348.239 103 346 105.239 346 108C346 110.761 348.239 113 351 113Z" fill="#FF8C22" stroke="white" stroke-width="2" stroke-miterlimit="10"/>
<path d="M480 177H605L731 99.5L859 150.5" stroke="#FFCE22" stroke-width="2"/>
<path d="M478 181.5C480.761 181.5 483 179.261 483 176.5C483 173.739 480.761 171.5 478 171.5C475.239 171.5 473 173.739 473 176.5C473 179.261 475.239 181.5 478 181.5Z" fill="#FFCE22" stroke="white" stroke-width="2" stroke-miterlimit="10"/>
<path d="M605 181.5C607.761 181.5 610 179.261 610 176.5C610 173.739 607.761 171.5 605 171.5C602.239 171.5 600 173.739 600 176.5C600 179.261 602.239 181.5 605 181.5Z" fill="#FFCE22" stroke="white" stroke-width="2" stroke-miterlimit="10"/>
<path d="M731 104.5C733.761 104.5 736 102.261 736 99.5C736 96.7386 733.761 94.5 731 94.5C728.239 94.5 726 96.7386 726 99.5C726 102.261 728.239 104.5 731 104.5Z" fill="#FFCE22" stroke="white" stroke-width="2" stroke-miterlimit="10"/>
<path d="M859 155.5C861.761 155.5 864 153.261 864 150.5C864 147.739 861.761 145.5 859 145.5C856.239 145.5 854 147.739 854 150.5C854 153.261 856.239 155.5 859 155.5Z" fill="#FFCE22" stroke="white" stroke-width="2" stroke-miterlimit="10"/>
<path d="M480 153H605L731 88.5L858.5 108" stroke="#51B449" stroke-width="2"/>
<path d="M478 157.5C480.761 157.5 483 155.261 483 152.5C483 149.739 480.761 147.5 478 147.5C475.239 147.5 473 149.739 473 152.5C473 155.261 475.239 157.5 478 157.5Z" fill="#51B449" stroke="white" stroke-width="2" stroke-miterlimit="10"/>
<path d="M605 157.5C607.761 157.5 610 155.261 610 152.5C610 149.739 607.761 147.5 605 147.5C602.239 147.5 600 149.739 600 152.5C600 155.261 602.239 157.5 605 157.5Z" fill="#51B449" stroke="white" stroke-width="2" stroke-miterlimit="10"/>
<path d="M731 94C733.761 94 736 91.7614 736 89C736 86.2386 733.761 84 731 84C728.239 84 726 86.2386 726 89C726 91.7614 728.239 94 731 94Z" fill="#51B449" stroke="white" stroke-width="2" stroke-miterlimit="10"/>
<path d="M859 113C861.761 113 864 110.761 864 108C864 105.239 861.761 103 859 103C856.239 103 854 105.239 854 108C854 110.761 856.239 113 859 113Z" fill="#51B449" stroke="white" stroke-width="2" stroke-miterlimit="10"/>
<path d="M480 166H605L731 59L858 128.5" stroke="#328BF2" stroke-width="2"/>
<path d="M478 170.5C480.761 170.5 483 168.261 483 165.5C483 162.739 480.761 160.5 478 160.5C475.239 160.5 473 162.739 473 165.5C473 168.261 475.239 170.5 478 170.5Z" fill="#328BF2" stroke="white" stroke-width="2" stroke-miterlimit="10"/>
<path d="M605 170.5C607.761 170.5 610 168.261 610 165.5C610 162.739 607.761 160.5 605 160.5C602.239 160.5 600 162.739 600 165.5C600 168.261 602.239 170.5 605 170.5Z" fill="#328BF2" stroke="white" stroke-width="2" stroke-miterlimit="10"/>
<path d="M731 65C733.761 65 736 62.7614 736 60C736 57.2386 733.761 55 731 55C728.239 55 726 57.2386 726 60C726 62.7614 728.239 65 731 65Z" fill="#328BF2" stroke="white" stroke-width="2" stroke-miterlimit="10"/>
<path d="M859 133.5C861.761 133.5 864 131.261 864 128.5C864 125.739 861.761 123.5 859 123.5C856.239 123.5 854 125.739 854 128.5C854 131.261 856.239 133.5 859 133.5Z" fill="#328BF2" stroke="white" stroke-width="2" stroke-miterlimit="10"/>
</svg>
